<?xml version="1.0" encoding="utf-8"?>
<!-- Generator: Adobe Illustrator 22.0.1, SVG Export Plug-In . SVG Version: 6.00 Build 0)  -->
<svg version="1.1" id="Layer_1" xmlns="http://www.w3.org/2000/svg" xmlns:xlink="http://www.w3.org/1999/xlink" x="0px" y="0px"
	 viewBox="0 0 262.8 95.5" style="enable-background:new 0 0 262.8 95.5;" xml:space="preserve">
<style type="text/css">
	.st0{fill:#0B2251;}
	.st1{fill:#FFFFFF;}
	.st2{fill:#0B2251;stroke:#000000;stroke-width:0.5;stroke-miterlimit:10;}
</style>
<title>barkspacelogo</title>
<g>
	<circle class="st0" cx="45.1" cy="45.6" r="35.4"/>
	<g id="_953-paw-print-selected_2x.png">
		<path class="st1" d="M51,34.7c3.2,0.9,6.7-1.8,7.8-6.1s-0.7-8.3-3.8-9.2c-3.2-0.9-6.7,1.8-7.8,6.1S47.7,33.8,51,34.7z M65.4,29.8
			c-3.2-0.9-6.7,1.8-7.8,6.1s0.6,8.5,3.8,9.3c3.2,0.9,6.7-1.9,7.8-6.1S68.5,30.7,65.4,29.8z M39.2,34.7c3.2-0.9,4.9-5,3.8-9.3
			s-4.6-7-7.8-6.1c-3.2,0.9-4.9,5-3.8,9.3C32.5,32.9,35.9,35.6,39.2,34.7z M28.7,45.3c3.2-0.9,4.9-5,3.8-9.3s-4.6-7-7.8-6.1
			c-3.2,0.9-4.9,5-3.8,9.3S25.5,46.1,28.7,45.3z M60.2,52.3c-1.9-0.7-3.6-1.7-4.9-3.2c-1.3-1.8-2.2-3.8-2.7-5.9
			c-1-3.3-2-6.6-7.3-6.6h-0.4c-5.3,0-6.3,3.2-7.3,6.6c-0.4,2.1-1.4,4.1-2.7,5.9c-1.3,1.4-3,2.6-4.9,3.2c-2.8,1.1-5.8,2.3-5.8,7.9
			c0,3.8,1.1,7.8,9.3,8c2.2,0.2,4.3-0.4,6.1-1.9c1.6-1.2,3.6-1.8,5.6-1.7c2-0.1,4,0.4,5.6,1.7c1.6,1.3,3.6,2,5.7,1.9h0.4
			c8.2-0.2,9.3-4.2,9.3-8C66,54.6,63.1,53.4,60.2,52.3L60.2,52.3z"/>
	</g>
</g>
<g>
	<path class="st0" d="M102.6,61.6c-0.5,0-0.9,0-1.4,0c-0.2,0-0.2,0-0.5,0c-0.2,0-0.2,0-0.5-0.2c0-0.2,0-0.2,0-0.5l0.5-0.2l0.2-0.2
		l0.5-0.9c0.2-0.2,0.2-0.7,0.2-0.9s0-0.7,0-1.4v-1.9c0-0.2,0-0.2,0-0.5s0-0.5,0-0.5c0-0.2,0-0.5,0-0.5c0-0.5,0-0.7,0-0.9
		s0-0.7,0-0.9s0-0.5,0-0.9s0-0.7,0-0.9s0-0.5-0.2-0.7c0,0,0,0-0.2-0.2h-0.2l-0.2-0.2l-0.2-0.2c-0.2,0-0.2-0.2-0.2-0.5c0,0,0,0,0-0.2
		l0,0h0.2l0,0c0.5-0.5,1.2-0.7,1.7-0.9c0.2,0,0.5-0.2,0.7-0.2c1.4-0.7,2.8-1.2,4.3-1.7l0.7-0.2l0.7-0.2l0.9-0.5l0.5-0.2l0.7-0.2
		c0.9-0.2,2.1,0,2.6,0.7c0.7,0.7,0.9,1.4,1.2,2.4c0.2,1.4,0,2.8-0.5,4v0.5c0,0,0,0,0,0.2h0.2l0.2,0.2c0.9,0.5,1.7,1.2,2.1,2.1
		c0.2,0.2,0.2,0.5,0.2,0.7c0.2,1.2,0.2,2.1,0,3.3c-0.2,0.9-0.7,1.7-1.4,2.4c-0.5,0.5-1.2,0.9-1.9,1.2c-0.7,0.5-1.7,0.5-2.4,0.5h-1.2
		c-0.2,0-0.7,0-0.9,0h-2.4h-3.8L102.6,61.6L102.6,61.6z M105.7,55.2c0,0.2-0.2,0.7-0.2,0.9c0,0.5,0,0.7,0,1.2s0,0.7,0,0.9
		s0,0.5,0,0.7c0.2,0.2,0.5,0.2,0.7,0.5h1.4h0.5h0.5h0.5l1.9-0.9c0.2-0.2,0.5-0.2,0.7-0.5c0.2-0.2,0.5-0.7,0.5-0.9s0-0.5,0-0.7
		c0-0.5,0-0.9-0.2-1.4c0-0.7-0.5-1.2-1.2-1.4c-0.5-0.2-1.2-0.2-1.9,0l-1.7,0.2l-1.4,0.2c-0.2,0-0.5,0-0.5,0.2
		C105.7,54.8,105.7,55,105.7,55.2L105.7,55.2L105.7,55.2z M105.7,47.9c0,0.2,0,0.7,0,1.9l0,0c0,0.2,0,0.7,0,0.9
		c0,0.5,0.2,0.9,0.5,1.2c0.2,0.2,0.5,0.2,0.7,0.2l2.4-0.5c0.7-0.2,1.4-0.9,1.7-1.7c0.2-0.5,0.2-0.9,0.2-1.7
		c-0.2-1.2-0.5-1.7-1.2-1.9c-0.9-0.2-1.9-0.2-2.6,0c-0.2,0-0.5,0-0.7,0.2c-0.2,0-0.2,0.2-0.5,0.2C105.7,47.4,105.7,47.7,105.7,47.9z
		"/>
	<path class="st0" d="M224.8,60.7c-0.2-0.2-0.7-0.7-1.2-0.9c-0.9-0.5-1.7-1.4-1.9-2.4c-0.5-1.2-1.2-2.4-1.4-3.8
		c-0.5-1.9-0.7-3.8-0.5-5.7v-0.2c0-0.7,0-1.4,0.2-1.9c0-0.5,0.2-0.9,0.5-1.7c0-0.5,0.2-0.9,0.7-1.7c0-0.2,0.2-0.5,0.5-0.7
		c0.2-0.5,0.9-0.9,1.7-1.9l0.2-0.2l0.2-0.2c0.5-0.5,1.2-0.9,1.9-1.2L227,38h0.2c0.7,0,1.2,0.2,1.9,0.2c1.4,0.2,2.6,0.7,3.8,1.4
		c0.5,0.2,0.7,0.5,1.2,0.7c0.2,0.2,0.7,0.2,0.9,0l0,0l0.2-0.2c0.2-0.2,0.5-0.2,0.5,0c0.2,0.2,0.5,0.5,0.9,0.7
		c0.2,0.2,0.2,0.2,0.2,0.5c0.2,0.2,0.2,0.7,0,1.2c0,0.2-0.2,0.2-0.2,0.5l-0.2,0.5c-0.7,1.4-1.2,2.8-1.4,4.3c0,0.2,0,0.5,0,0.7
		s0,0.5,0,0.7s-0.2,0.5-0.5,0.5s-0.5-0.2-0.5-0.2c0-0.2-0.2-0.2-0.2-0.5c0,0,0-0.2,0-0.5c0-1.9-0.5-3.5-1.7-5
		c-0.7-1.2-1.9-1.7-3.1-1.9c-0.7,0-1.4,0.5-1.9,1.2c-0.7,0.9-1.2,2.1-1.4,3.3c0,0.2,0,0.2,0,0.5c-0.2,1.9-0.2,3.5,0.2,5.4
		c0.2,0.9,0.5,1.9,1.2,2.8c0.2,0.5,0.7,0.9,1.4,1.2c0.9,0.5,1.7,0.5,2.6,0.5c1.2-0.2,2.4-0.7,3.3-1.7l0.5-0.5l0.5-0.5
		c0.2-0.5,0.5-0.2,0.7,0.2c0.2,0.5,0.5,1.2,0.5,1.7c0,0.2,0,0.5,0,0.7c0,0.2-0.2,0.2-0.5,0.2l-0.5,0.5c-0.5,0.7-1.2,1.4-1.7,1.9
		c-0.7,0.5-1.4,0.9-2.1,1.4l-0.9,0.5c-0.2,0.2-0.5,0.2-0.7,0.2c-0.7,0.2-1.7,0.2-2.4,0.2l-1.7-0.2C225.8,61.2,225.3,60.9,224.8,60.7
		z"/>
	<path class="st0" d="M239.7,61.4h-0.9c-0.2,0-0.5,0-0.5-0.2l-0.2-0.2c0-0.2,0-0.2,0-0.5c0.2-0.2,0.2-0.5,0.5-0.7
		c0.5-0.7,0.7-1.4,0.7-2.4c0-0.9,0-1.9,0-2.8v-0.2c0,0,0-0.2,0-0.5s0-0.2,0-0.5c0-0.7,0-1.2,0-1.2c0-0.5,0-0.9,0-1.7
		c0-0.7,0-1.2,0-1.9V47c0,0,0-0.2,0-0.5c0-0.7-0.2-1.7-0.7-2.4v-0.2v0.2v-0.2c0.5-0.5,0.7-0.7,1.2-0.5l2.1,0.7l2.4,0.7l2.4,0.7
		l4.5,1.7l0.5,0.2c0.2,0,0.5,0.2,0.7,0.5c0.2,0.2,0.2,0.5,0.2,0.7c0,0.2,0,0.7,0.2,1.4c0.2,0.7,0,0.9,0.2,1.2c0,0.2,0,0.2-0.2,0.5
		c0,0-0.2,0-0.5,0l-0.5-0.5l-0.7-0.5l-0.9-0.7c-0.2,0-0.7-0.5-1.4-0.7l-0.7-0.2c-0.2,0-0.5-0.2-0.7-0.5c-0.7-0.2-1.4-0.7-2.1-0.9
		c-0.2,0-0.5,0-0.5,0.5s0,0.5,0,0.9s0,0.7,0,0.9s0,0.2,0,0.2v0.2v0.7c0,0.9,0,1.4,0,1.4c0,0.2,0.2,0.5,0.5,0.5
		c1.2,0.2,2.4,0,3.3-0.5v-0.2h0.2h0.2l0.2,0.2c0,0.2,0,0.7,0,0.9c0,0.5,0,0.9,0,1.4v0.5c0,0,0,0.2,0,0.5v0.5c0,0,0,0.2-0.2,0.2h-0.2
		h-0.2c-0.9-0.7-2.1-1.2-3.3-1.2c-0.2,0-0.2,0-0.5,0c0,0.2,0,0.2,0,0.5c0,0.9,0,1.9,0,3.1c0,0.5,0.2,0.5,0.5,0.5h0.7l0.9-0.2
		l0.7-0.2l0.7-0.2l1.4-0.5c0.5-0.2,0.9-0.2,1.2-0.5l1.2-0.5h0.2h0.2c0.2,0,0.5,0,0.7,0.2c0.2,0.2,0.2,0.5,0.2,0.7
		c0,0.7-0.2,1.7-0.2,2.4v0.2v0.2c0,0.2-0.2,0.5-0.5,0.5l0,0h-6.1c-2.6,0-4.3,0-4.7,0h-1.2L239.7,61.4z"/>
	<path class="st0" d="M123.2,61.6h-1.7h-1.4c-0.2,0-0.5,0-0.7-0.2c-0.2,0-0.2-0.2-0.2-0.5s0-0.2,0-0.5c0,0,0-0.2,0.2-0.2V60
		c0.2-0.5,0.5-0.9,0.5-1.4c0.5-1.4,0.7-2.8,0.9-4.3c0-0.2,0-0.2,0-0.5s0-0.2,0.2-0.5c0-0.2,0-0.2,0-0.5c0.5-1.7,0.5-2.6,0.7-2.8
		c0-0.5,0.2-1.4,0.5-2.4c0.2-1.2,0.5-1.9,0.5-2.4c0.2-0.9,0.2-1.9,0.2-2.8c0-0.5-0.2-0.9-0.5-1.4l-0.2-0.2v-0.2v-0.2l0,0
		c1.2-0.5,1.9-0.7,1.9-0.7l1.9-0.5l1.7-0.5c0.2,0,0.5,0,0.5,0c0.2,0.2,0.5,0.5,0.2,1.2v0.2v0.2c0,0.2,0,0.5,0,0.7
		c0.2,1.9,0.5,3.5,0.7,4.5c0,0.2,0,0.5,0.2,0.7c0,0.2,0.2,0.5,0.2,0.7c0,0.2,0,0.5,0,0.7s0,0.5,0.2,0.7s0.2,0.5,0.5,1.4l0.5,1.9
		c0.2,0.5,0.2,1.2,0.5,1.9c0.2,1.4,0.5,2.6,0.7,3.5c0,0.2,0,0.5,0.2,0.9s0.2,0.7,0.2,0.9s0.2,0.7,0.7,2.1c0,0.2,0,0.5,0,0.5
		c0,0.2,0,0.2-0.2,0.5c-0.2,0-0.2,0.2-0.5,0.2h-3.3h-0.9h-0.9h-0.2c-0.2-0.2-0.2-0.2-0.2-0.5c0-0.2,0-0.2,0.2-0.5
		c0.5-0.7,0.7-1.7,0.5-2.4c0,0,0-0.5-0.2-1.4c0-0.2,0-0.5,0-0.5c0-0.2,0-0.5-0.2-0.5c0-0.2-0.2-0.5-0.5-0.5h-0.7h-0.9h-0.9
		c-0.5,0-0.7,0.2-0.7,0.9c-0.2,0.9-0.2,1.7-0.2,2.6c0,0.5,0.2,0.9,0.5,1.4c0,0,0.2,0.2,0.2,0.5v0.2v0.2
		C123.9,61.4,123.6,61.4,123.2,61.6z M123.9,51.5c0,0.2,0,0.5,0,0.7c0,0.2,0.2,0.2,0.5,0.2h0.5h0.5h0.5l0,0h0.2h0.2
		c0.2-0.2,0.2-0.5,0.5-0.7c0.2-0.2,0.2-0.5,0.5-0.7c0-0.2,0-0.5,0-0.7c0-0.2-0.5-1.9-1.4-4.7v-0.2c0-0.2,0-0.2-0.2-0.2
		c-0.2,0-0.2,0-0.2,0.2c0,0,0,0.2-0.2,0.2l-0.5,2.4c0,0.5-0.2,1.4-0.5,2.8C123.9,51.2,123.9,51.5,123.9,51.5z"/>
	<path class="st0" d="M151.1,53.1c0.2-0.2,0.2-0.2,0.5,0s0.2,0.5,0.2,0.7c0,1.2,0,1.9,0,1.9c-0.2,1.2-0.5,2.4-0.7,3.3
		c-0.2,0.9-0.7,1.7-1.4,2.1c-0.7,0.7-1.7,0.7-2.4,0l-0.2-0.2c-0.7-0.9-1.4-1.9-1.9-3.1c0-0.2-0.5-1.2-1.4-2.8c0,0,0-0.2-0.2-0.2
		l-0.2-0.2c-0.5-0.7-0.9-1.4-1.7-1.9c-0.2-0.2-0.5,0-0.5,0.5s0,0.9,0,1.7c0,0.2,0,0.5,0,0.7s0,0.7,0,0.7c0,0.9,0.2,1.7,0.7,2.4
		c0,0.2,0.2,0.5,0.5,0.5c0,0.2,0,0.5,0,0.7c0,0.2,0,0.5-0.2,0.5c-0.2,0.2-0.7,0.5-0.9,0.5h-4.3c-0.2,0-0.7,0-0.9-0.2
		c0,0-0.2-0.2-0.2-0.5s0-0.2,0-0.5l0,0c0.7-0.7,0.9-1.7,0.9-2.8c0-2.1,0-4.3,0-6.1c0-0.7,0-1.9,0-3.3c0-1.4,0-2.6,0-3.3
		c0-1.2,0-2.6-0.2-4c0-0.7-0.2-1.4-0.5-2.1c-0.2-0.2-0.2-0.5-0.2-0.9c0-0.2,0.2-0.5,0.5-0.5c0.7-0.2,1.2-0.5,1.9-0.5
		c0.2,0,1.2-0.2,3.3-0.5l0,0l4.3-0.7c0.7,0,1.2,0,1.7,0.5c0.9,0.9,1.9,2.1,2.1,3.5c0.2,0.7,0.2,1.2,0.5,1.9c0,0.2,0,1.2,0,3.1
		c-0.2,1.2-0.5,2.4-0.9,3.5c0,0,0,0,0,0.2c-0.9,1.4-1.4,2.1-1.9,2.6v0.2c-0.2,0.2-0.2,0.5,0,0.7v0.2l1.2,1.9
		c0.2,0.5,0.7,0.5,1.2,0.5C150.1,54.1,150.6,53.6,151.1,53.1z M144.7,47.7c0.9-1.2,1.2-2.4,1.2-3.8c0-1.2,0-2.4-0.5-3.5
		c-0.2-0.7-0.9-1.4-1.7-1.9c-0.7-0.5-1.7-0.5-2.4-0.2l-0.9,0.2c-0.2,0-0.5,0.5-0.5,1.2c0,2.4,0.2,4.7,0.2,6.6v2.6
		c0,0.5,0.2,0.9,0.5,1.2s0.9,0.2,1.2,0C143,49.3,144,48.6,144.7,47.7z"/>
	<path class="st0" d="M160.5,61.2c-0.5,0-0.9,0-1.4,0h-4.5h-0.5l-0.2-0.2c0-0.2,0-0.2,0-0.5c0,0,0-0.2,0.2-0.7
		c0.5-1.4,0.7-2.8,0.7-4.3c0-1.2,0-3.3,0-6.1c0-0.9,0-2.8,0-5.9c0-0.5,0-1.4,0-2.8c0-1.4,0-2.1,0-2.8c0-1.2-0.2-2.1-0.9-3.1
		c-0.2-0.2-0.2-0.5-0.5-0.7c0-0.2,0-0.5,0-0.5c0-0.2,0-0.2,0.2-0.5c0.5-0.2,0.9-0.2,1.2-0.5l0.9-0.2l0.9-0.2h0.9l1.2-0.2
		c0.2,0,0.5,0,0.7,0c0.2,0,0.5,0,0.5,0.2h0.2h0.2c0.2,0,0.2,0,0.5,0.2c0,0,0.2,0.2,0.2,0.5c0,0.2,0,0.5,0,0.5c0,0.2-0.2,0.5-0.2,0.7
		c-0.7,1.4-0.9,2.8-0.7,4.5c0,1.7,0,3.3,0,5l0,0l0.2-0.5l0.5-0.7c0-0.2,0.2-0.5,0.2-0.7l2.1-4c0.2-0.5,0.7-1.4,1.2-2.6
		c0-0.2,0.2-0.5,0.2-0.7c0-0.5,0-0.7,0-1.2v-0.2v-0.2v-0.2c0-0.2,0-0.5,0-0.7c0-0.2,0.2-0.2,0.5-0.2l0.2,0.2l3.5,3.5
		c0.2,0.2,0.5,0.7,0.7,0.9c0.2,0.2,0.2,0.5,0.5,0.5c0.2,0.2,0.2,0.5,0.2,0.5c0.2,0.2,0.2,0.5,0.2,0.7c0,0.2-0.2,0.5-0.2,0.5l0,0
		h-0.2l-0.2,0.2l-0.2,0.2l-1.2,0.9l-0.2,0.2l-0.2,0.2l-0.2,0.2l-0.2,0.2c-0.2,0.5-0.7,0.7-0.9,1.2c-0.2,0.2-0.7,0.9-1.7,2.6v0.2
		l-0.2,0.2c0,0.2-0.2,0.5-0.5,0.5c-0.2,0.2-0.2,0.5-0.5,0.7c0.2,0.5,0.5,1.2,0.9,2.4c0.2,0.5,0.5,1.2,0.9,1.7v0.2v0.2
		c0.7,1.2,1.2,1.9,1.2,1.9c0.2,0.5,0.7,0.7,1.2,0.5c0.7,0,1.4-0.5,1.9-0.9c0.2-0.2,0.2-0.2,0.5,0s0.2,0.5,0.2,0.7c0,1.2,0,1.9,0,2.1
		c0,2.1-0.9,4.3-2.4,5.9c-0.5,0.7-1.7,0.7-2.4,0.2c-0.2,0-0.2-0.2-0.2-0.5c-0.7-0.9-1.4-2.1-1.9-3.3c0-0.2-0.5-1.2-1.4-3.1
		c0,0,0-0.2-0.2-0.2c0,0,0-0.2-0.2-0.2c-0.5-0.7-0.9-1.4-1.7-2.1c-0.2,0.2-0.2,0.5-0.5,0.7v0.9c-0.2,1.2-0.2,2.4-0.2,3.5
		c0,0.7,0.2,1.2,0.5,1.9c0.2,0.2,0.2,0.7,0.5,0.9s0.2,0.7,0,0.9C161,61.2,160.8,61.2,160.5,61.2z"/>
	<path class="st0" d="M183.9,50c0.5,0.9,0.7,2.1,0.5,3.3c0,0,0,0.5,0,1.4c0,1.4-0.5,3.1-1.2,4.3c-0.5,0.7-0.7,1.2-1.2,1.7
		c-0.2,0.2-0.7,0.7-0.9,0.9s-0.7,0.2-0.9,0.2h-0.7c-1.4,0-2.6-0.5-3.8-1.4l-0.5-0.5l-0.5-0.5c-0.2-0.2-0.2-0.2-0.5-0.2
		s-0.2,0.2-0.5,0.5v0.5c0,0.2,0,0.2-0.2,0.5c0,0.2-0.2,0.5-0.5,0.2c-0.2-0.2,0.2,0,0.2-0.2s0-0.5,0-0.7v-1.7c0-1.7,0-3.3,0-5.7
		c0-0.5,0-0.9,0.2-1.4c0.2-0.2,0.5,0,0.7,0.2l0.5,0.7l0.5,0.7c0.5,0.7,0.9,1.2,1.7,1.9c0.5,0.2,0.7,0.5,1.2,0.7
		c0.2,0.2,0.5,0,0.7-0.2l0.5-0.7c0.2-0.7,0.2-1.2,0.2-1.9c-0.2-0.7-0.5-1.4-0.7-2.1c-0.5-0.9-1.2-1.9-2.1-2.8
		c-0.7-0.5-1.2-1.2-1.4-1.9c0-0.2-0.2-0.2-0.2-0.5c-0.2-0.2-0.2-0.5-0.5-0.5l-0.2-0.5c-0.7-1.2-1.2-2.4-1.4-3.8
		c-0.2-0.9-0.2-1.7-0.2-2.6c0-0.7,0-1.2,0.2-1.9c0.5-1.2,0.9-2.1,1.7-3.1c0.2-0.2,0.2-0.5,0.5-0.5c0.5-0.2,0.9-0.5,1.4-0.9h0.2h0.2
		h0.2c1.2-0.2,2.4,0.2,3.1,0.9c0.5,0.2,0.7,0.5,1.2,0.7c0.5,0.2,1.2,0.2,1.7,0l0.5-0.2l0.5-0.2h0.2c0,0.2,0.2,0.2,0.2,0.5
		s0,0.7,0,1.2c0,0.2,0,0.5,0,0.9s0,0.7,0,0.9s0,1.2-0.2,1.9c-0.2,0.7-0.2,1.4-0.2,1.7v0.2c0,0.5-0.2,0.7-0.2,0.7s-0.2,0-0.5-0.2
		c-0.7-1.2-1.4-2.1-2.4-3.1c-0.2-0.2-0.5-0.5-0.7-0.7c-0.2,0-0.2-0.2-0.5-0.2c-0.5,0-0.7,0.2-0.7,0.7c-0.2,0.5,0,1.2,0.2,1.7v0.5
		l0.2,0.5c0,0,0,0.2,0,0.5l0.2,0.5c0,0,0,0.2,0.2,0.2c0,0.2,0,0.2,0.2,0.5c0,0,0,0.2,0.2,0.2l0.2,0.2l0.2,0.2
		c0.5,0.7,0.9,1.4,1.2,2.4c0,0.2,0.2,0.5,0.2,0.5c0.2,0.2,0.5,0.5,0.7,0.7l0.7,1.4c0.2,0.5,0.5,0.9,0.5,0.9
		C183.5,49.1,183.7,49.6,183.9,50z"/>
	<path class="st0" d="M200.7,38.9c0.2,0.7,0.2,1.4,0.2,1.9v3.3c-0.2,1.2-0.5,2.4-0.9,3.3c0,0.2-0.2,0.5-0.2,0.7
		c-0.2,0.5-0.5,0.9-0.7,1.2c-0.5,0.5-0.9,0.9-1.4,1.4c-0.7,0.5-1.4,0.9-2.4,1.2s-1.9,0.2-2.8,0.2c-0.2-0.2-0.5,0-0.5,0.5
		c0,0.5,0,1.2,0,1.7c0,0.2,0,0.5,0,0.7s0,0.7,0,0.9c0,0.9,0.5,1.7,0.9,2.4l0.5,0.7c0,0.2,0,0.5,0,0.7c0,0.2,0,0.5-0.2,0.5
		c-0.2,0.2-0.7,0.5-0.9,0.5h-4.5c-0.2,0-0.7,0-0.9-0.2c0,0-0.2-0.2-0.2-0.5c0-0.2,0-0.5,0-0.5l0,0c0.7-0.9,0.9-1.9,1.2-3.1
		c0.2-2.4,0.2-4.7,0.2-7.1c0-0.7,0-2.1,0-3.8c0-1.7,0-2.8,0-3.8c0-1.4,0-2.8,0-4.7c0-0.9-0.2-1.9-0.5-2.6c-0.2-0.2-0.2-0.7-0.2-0.9
		c0-0.2,0.2-0.5,0.5-0.5c0.7,0,1.2,0,1.9,0l3.3,0.2l0,0c2.6,0.2,4,0.5,4.3,0.5c0.7,0,1.4,0.5,1.7,0.9
		C199.8,36.1,200.5,37.5,200.7,38.9z M196.2,47c0.9-1.2,1.4-2.4,1.4-3.8c0-1.2,0-2.6-0.5-3.8c-0.2-0.9-0.9-1.7-1.7-2.4
		c-0.7-0.5-1.4-0.9-2.4-0.9c-0.2,0-0.7,0-0.9,0c-0.5,0-0.5,0.5-0.5,1.2c0,2.6,0,5,0,7.1c0,0.9,0,2.1,0,3.1c0,0.5,0.2,0.9,0.5,1.4
		c0.2,0.5,0.7,0.5,1.2,0.2l0,0C194.3,48.6,195.3,47.9,196.2,47z"/>
	<path class="st0" d="M206.6,61.2H205h-1.4c-0.2,0-0.5,0-0.7-0.2c0-0.2-0.2-0.2-0.2-0.5s0-0.5,0-0.7c0,0,0-0.2,0.2-0.2l0.2-0.2
		c0.2-0.5,0.5-1.2,0.7-1.7c0.5-1.9,0.9-3.8,1.2-5.7c0-0.2,0-0.5,0-0.5l0.2-0.7c0-0.2,0-0.5,0.2-0.5c0.5-2.1,0.7-3.1,0.7-3.3
		c0.2-0.7,0.5-1.7,0.7-2.8c0.2-1.2,0.5-2.1,0.7-2.6c0.2-0.9,0.5-2.1,0.5-3.1c0-0.7,0-1.2-0.2-1.9l-0.2-0.5c0,0,0-0.2,0-0.5
		c0,0,0-0.2,0.2-0.2h2.1l1.9,0.2l1.7,0.2c0.2,0,0.5,0.2,0.5,0.5c0.2,0.5,0.5,0.9,0.2,1.2v0.2V38c0,0.2,0,0.5,0,0.7
		c0.2,2.1,0.2,3.8,0.5,5c0,0.2,0,0.5,0,0.7s0,0.5,0,0.9s0,0.5,0,0.7c0,0.2,0,0.5,0,0.7s0,0.5,0.2,1.4c0.2,0.9,0.2,1.4,0.5,1.9
		s0.2,1.2,0.2,1.9c0.2,1.7,0.5,2.8,0.5,3.8c0,0.2,0,0.5,0.2,0.9c0.2,0.5,0.2,0.7,0.2,0.9l0.7,2.1c0,0.2,0,0.5,0,0.5
		c0,0.2,0,0.2-0.2,0.5c-0.2,0-0.2,0.2-0.5,0.2h-3.1c-0.2,0-0.5,0-0.7,0h-0.9h-0.9c-0.2,0-0.2,0-0.2-0.2c-0.2-0.2-0.2-0.5-0.2-0.5
		c0-0.2,0-0.5,0.2-0.5c0.7-0.7,0.7-1.7,0.5-2.6c0,0,0-0.7-0.2-1.7c0-0.2,0-0.5,0-0.5c0-0.2,0-0.5-0.2-0.7c0-0.2-0.2-0.2-0.5-0.2
		h-0.7h-0.7l-0.9-0.2c-0.5,0-0.7,0.2-0.7,0.9c-0.2,0.9-0.5,2.1-0.2,3.1c0,0.5,0.2,1.2,0.5,1.7c0,0.2,0.2,0.2,0.2,0.5
		c0,0,0,0.2,0,0.5v0.2C207.3,61.2,206.9,61.2,206.6,61.2z M207.8,49.3c0,0.2,0,0.7,0,0.9c0,0.2,0.2,0.5,0.5,0.5h0.5h0.5h0.5l0,0h0.2
		h0.2c0.2-0.2,0.2-0.2,0.5-0.5c0.2-0.2,0.2-0.5,0.5-0.7c0-0.2,0-0.5,0-0.9c0-0.2-0.5-2.1-1.2-5.7v-0.2c0-0.2,0-0.2-0.2-0.2
		c-0.2,0-0.2,0-0.2,0l-0.2,0.2c-0.2,0.9-0.5,1.9-0.7,2.6c-0.2,0.7-0.5,1.7-0.7,3.3L207.8,49.3z"/>
</g>
<line class="st2" x1="92.2" y1="10.2" x2="92.2" y2="81.7"/>
</svg>
