<?xml version="1.0" encoding="utf-8"?>
<!-- Generator: Adobe Illustrator 22.1.0, SVG Export Plug-In . SVG Version: 6.00 Build 0)  -->
<svg version="1.1" id="Layer_1" xmlns="http://www.w3.org/2000/svg" xmlns:xlink="http://www.w3.org/1999/xlink" x="0px" y="0px"
	 viewBox="0 0 50 40" style="enable-background:new 0 0 50 40;" xml:space="preserve">
<style type="text/css">
	.st0{fill:#052945;}
</style>
<g>
	<g>
		<path class="st0" d="M15.7,1.2c2.9,0,5,0.5,6.5,1.4c1.5,0.9,2.2,2.3,2.2,4.1c0,0.9-0.2,1.7-0.6,2.5c-0.4,0.7-1,1.3-1.7,1.9
			c-0.8,0.5-1.7,0.9-2.8,1.1c2.1,0.2,3.7,0.9,4.8,1.9c1.1,1,1.7,2.4,1.7,4.2c0,2.3-0.9,4.2-2.7,5.5c-1.8,1.4-4.3,2.1-7.4,2.1H4.4
			c-0.4,0-0.8-0.1-0.9-0.3c-0.2-0.2-0.3-0.5-0.3-1V5.5c0-0.6,0-1.1-0.1-1.4C2.9,3.8,2.7,3.6,2.5,3.3C2.2,3.1,1.8,2.8,1.2,2.4
			C1.1,2.3,1,2.2,1,2.1V1.6c0-0.2,0.1-0.4,0.4-0.4H15.7z M13.1,11.4h0.5c0.6,0,0.9-0.3,0.9-0.9V4c0-0.3-0.1-0.5-0.2-0.7
			C14.2,3.1,14,3,13.8,3c-0.3,0-0.6,0.1-0.7,0.3V11.4z M13.1,13.1v10.7c0.1,0.2,0.4,0.3,0.7,0.3c0.2,0,0.4-0.1,0.5-0.3
			c0.1-0.2,0.2-0.4,0.2-0.7V14c0-0.6-0.3-0.9-1-0.9H13.1z"/>
	</g>
	<g>
		<path class="st0" d="M49,31.1c0,2.5-1,4.4-3.1,5.7c-2.1,1.3-5,2-8.8,2c-3.6,0-6.3-0.5-8.1-1.6c-1.8-1.1-2.8-2.6-2.8-4.7
			c0-1.3,0.5-2.3,1.4-3.1c0.9-0.8,2.1-1.2,3.5-1.2c1.7,0,3,0.4,3.9,1.1c1,0.7,1.5,1.7,1.5,2.9c0,0.9-0.3,1.7-1,2.2s-1.5,0.8-2.7,0.9
			c-0.2,0.1-0.2,0.3-0.2,0.5c0,0.2,0.1,0.3,0.2,0.4c0.2,0.1,0.4,0.1,0.6,0.1c1.2,0,2.3-0.4,3.1-1.2c0.8-0.8,1.2-1.8,1.2-3
			c0-1-0.2-1.8-0.6-2.4c-0.4-0.6-1-1.2-1.9-1.7c-0.9-0.5-2.1-1-3.6-1.4c-1.7-0.5-3-1.3-3.9-2.3c-0.9-1-1.3-2.3-1.3-3.8
			c0-1.5,0.5-2.8,1.4-3.9c0.9-1.1,2.3-2.1,4-2.7c1.7-0.7,3.8-1,6.1-1c3.3,0,5.8,0.6,7.7,1.7c1.8,1.1,2.8,2.7,2.8,4.6
			c0,1.3-0.5,2.3-1.4,3.1c-1,0.8-2.2,1.2-3.7,1.2c-1.6,0-2.8-0.4-3.8-1.1c-1-0.7-1.4-1.7-1.4-2.9c0-0.9,0.3-1.7,1-2.2
			c0.6-0.5,1.5-0.8,2.7-0.9c0.1-0.1,0.2-0.3,0.2-0.5c0-0.2-0.1-0.3-0.2-0.4c-0.2-0.1-0.4-0.1-0.6-0.1c-0.8,0-1.5,0.2-2.2,0.5
			c-0.7,0.4-1.2,0.9-1.6,1.5c-0.4,0.6-0.6,1.3-0.6,2.1c0,1.4,0.5,2.5,1.4,3.3c0.9,0.8,2.5,1.6,4.7,2.2c2.1,0.6,3.6,1.4,4.5,2.4
			C48.5,28.2,49,29.5,49,31.1z"/>
	</g>
</g>
</svg>
